<?xml version="1.0" encoding="UTF-8"?>
<svg id="Layer_2" data-name="Layer 2" xmlns="http://www.w3.org/2000/svg" xmlns:xlink="http://www.w3.org/1999/xlink" viewBox="0 0 600 600">
  <defs>
    <style>
      .cls-1 {
        fill: none;
      }

      .cls-2 {
        clip-path: url(#clippath);
      }

      .cls-3, .cls-4 {
        fill: #27aae1;
      }

      .cls-4 {
        stroke: #27aae1;
        stroke-miterlimit: 10;
      }
    </style>
    <clipPath id="clippath">
      <rect class="cls-1" width="600" height="600"/>
    </clipPath>
  </defs>
  <g id="Layer_1-2" data-name="Layer 1">
    <g class="cls-2">
      <g>
        <path class="cls-4" d="M689.87-27.57c19.01,16.6,28.05,44.97,9.88,58.29-18.28,13.19-63.77,11.33-89.1,31.71-25.48,20.51-30.8,63.26-46.09,77.78-15.18,14.64-40.31,.78-64.47-9.8-24.27-10.71-47.53-18.4-63.25-33.94-15.76-15.27-23.99-38.39-13.85-59.22,9.99-20.7,38.49-39.23,50.33-60.84,11.58-21.61,6.28-46.56,13.56-70.41,7.54-23.85,27.27-46.75,49.07-51.53,21.69-4.91,45.46,8.29,58.52,26.57,13.32,18.28,16.21,41.65,32.01,55.74,15.81,14.09,44.54,18.91,63.4,35.64Z"/>
        <g>
          <path class="cls-4" d="M536.66,523.77c-9.41,10.35-19.95,17.16-28.54,28.99-12.84,17.68-16.23,29.56-24.9,29.78-3.29,.08-4.38-1.67-14.66-8.24,0,0-10.96-7-20.57-11.82-20.19-10.13-26.56-3.74-38.07-11.12-9.2-5.91-12.36-19.04-12.65-31.53-.17-12.41,2.5-24.27,8.44-33.52,5.92-9.35,15.01-16.07,23.04-26.45,8.01-10.48,14.79-24.49,25.04-29.1,10.35-4.63,23.96,.19,36.37,5.85,12.31,5.69,23.43,12.23,35.3,20.45,11.89,8.32,24.45,18.35,26.64,30.35,2.2,12-6.07,25.9-15.46,36.36Z"/>
          <path class="cls-3" d="M453.8,560.87c.55,.05,1.09,.11,1.64,.19l-1.99-.27c3.12,.46,6.14,1.33,9.05,2.55l-1.79-.76c2.66,1.14,5.2,2.54,7.59,4.17,.57,.39,1.14,.79,1.69,1.2,.46,.34,1.35,1.31-.2-.17,.19,.19,.44,.35,.65,.52,1.19,.97,2.34,1.99,3.45,3.06,2.25,2.15,4.33,4.47,6.29,6.88,.47,.57,.9,1.18,1.38,1.74-1.52-1.77,.1,.16,.44,.61,.97,1.31,1.92,2.65,2.85,3.99,7.18,10.43,13.91,21.27,19.98,32.38,3.46,6.35,6.66,12.84,9.47,19.5l-.76-1.79c8.62,20.57,12.99,42.51,18.98,63.91,5.39,19.27,12.41,38.64,24.23,54.99,6.79,9.4,14.82,17.6,24.53,24.01,3.28,2.17,8.44,.76,10.26-2.69,1.99-3.76,.81-7.95-2.69-10.26-.77-.51-1.53-1.02-2.28-1.55-.37-.27-.74-.53-1.11-.81-.45-.33-2.11-1.7-.2-.13-1.46-1.2-2.92-2.38-4.32-3.65-2.84-2.58-5.49-5.36-7.96-8.29-.59-.7-1.17-1.4-1.73-2.12-.12-.15-.24-.31-.36-.46-.57-.72,1.01,1.32,.45,.59-.32-.42-.63-.83-.94-1.25-1.13-1.53-2.22-3.09-3.27-4.67-2.14-3.25-4.12-6.61-5.94-10.05-2.09-3.93-3.97-7.97-5.7-12.07l.76,1.79c-10.44-24.89-14.52-51.8-23.02-77.32-4.55-13.66-10.59-26.75-17.69-39.27-3.42-6.03-7.05-11.94-10.79-17.78s-7.12-11.11-11.13-16.34c-5.04-6.57-10.56-12.49-17.41-17.21s-14.33-7.4-22.41-8.16c-1.81-.17-4.07,.96-5.3,2.2-1.3,1.3-2.28,3.44-2.2,5.3s.72,3.95,2.2,5.3,3.22,2,5.3,2.2h0Z"/>
        </g>
      </g>
    </g>
  </g>
</svg>