<?xml version="1.0" encoding="UTF-8"?>
<svg id="Layer_2" data-name="Layer 2" xmlns="http://www.w3.org/2000/svg" xmlns:xlink="http://www.w3.org/1999/xlink" viewBox="0 0 600 600">
  <defs>
    <style>
      .cls-1 {
        fill: none;
      }

      .cls-2 {
        clip-path: url(#clippath);
      }

      .cls-3, .cls-4 {
        fill: #27aae1;
      }

      .cls-4 {
        stroke: #27aae1;
        stroke-miterlimit: 10;
      }
    </style>
    <clipPath id="clippath">
      <rect class="cls-1" width="600" height="600"/>
    </clipPath>
  </defs>
  <g id="Layer_1-2" data-name="Layer 1">
    <g class="cls-2">
      <g>
        <path class="cls-4" d="M147.79,196.58c2.22,9.47-6.41,19.71-20.42,32.27-14.1,12.65-33.58,27.71-46.06,21.34-12.56-6.37-18.12-34.17-10.51-51.21,7.61-16.95,28.29-23.15,45.12-21.86,16.84,1.29,29.74,9.98,31.88,19.45Z"/>
        <g>
          <path class="cls-4" d="M604.43,155.56c-9.41,10.35-19.95,17.16-28.54,28.99-12.84,17.68-16.23,29.56-24.9,29.78-3.29,.08-4.38-1.67-14.66-8.24,0,0-10.96-7-20.57-11.82-20.19-10.13-26.56-3.74-38.07-11.12-9.2-5.91-12.36-19.04-12.65-31.53-.17-12.41,2.5-24.27,8.44-33.52,5.92-9.35,15.01-16.07,23.04-26.45,8.01-10.48,14.79-24.49,25.04-29.1,10.35-4.63,23.96,.19,36.37,5.85,12.31,5.69,23.43,12.23,35.3,20.45,11.89,8.32,24.45,18.35,26.64,30.35,2.2,12-6.07,25.9-15.46,36.36Z"/>
          <path class="cls-3" d="M521.56,192.65c.55,.05,1.09,.11,1.64,.19l-1.99-.27c3.12,.46,6.14,1.33,9.05,2.55l-1.79-.76c2.66,1.14,5.2,2.54,7.59,4.17,.57,.39,1.14,.79,1.69,1.2,.46,.34,1.35,1.31-.2-.17,.19,.19,.44,.35,.65,.52,1.19,.97,2.34,1.99,3.45,3.06,2.25,2.15,4.33,4.47,6.29,6.88,.47,.57,.9,1.18,1.38,1.74-1.52-1.77,.1,.16,.44,.61,.97,1.31,1.92,2.65,2.85,3.99,7.18,10.43,13.91,21.27,19.98,32.38,3.46,6.35,6.66,12.84,9.47,19.5l-.76-1.79c8.62,20.57,12.99,42.51,18.98,63.91,5.39,19.27,12.41,38.64,24.23,54.99,6.79,9.4,14.82,17.6,24.53,24.01,3.28,2.17,8.44,.76,10.26-2.69,1.99-3.76,.81-7.95-2.69-10.26-.77-.51-1.53-1.02-2.28-1.55-.37-.27-.74-.53-1.11-.81-.45-.33-2.11-1.7-.2-.13-1.46-1.2-2.92-2.38-4.32-3.65-2.84-2.58-5.49-5.36-7.96-8.29-.59-.7-1.17-1.4-1.73-2.12-.12-.15-.24-.31-.36-.46-.57-.72,1.01,1.32,.45,.59-.32-.42-.63-.83-.94-1.25-1.13-1.53-2.22-3.09-3.27-4.67-2.14-3.25-4.12-6.61-5.94-10.05-2.09-3.93-3.97-7.97-5.7-12.07l.76,1.79c-10.44-24.89-14.52-51.8-23.02-77.32-4.55-13.66-10.59-26.75-17.69-39.27-3.42-6.03-7.05-11.94-10.79-17.78-3.55-5.55-7.12-11.11-11.13-16.34-5.04-6.57-10.56-12.49-17.41-17.21s-14.33-7.4-22.41-8.16c-1.81-.17-4.07,.96-5.3,2.2-1.3,1.3-2.28,3.44-2.2,5.3s.72,3.95,2.2,5.3,3.22,2,5.3,2.2h0Z"/>
        </g>
        <g>
          <path class="cls-3" d="M477.32,312c6.81,14.18,14.25,17.8,30.6,24.73,16.47,6.93,41.87,16.86,43.85,28.35,1.98,11.5-19.45,24.57-31.59,40.64-12.26,16.07-15.24,35.29-24.15,47.1-8.79,11.81-23.41,16.23-37.16,14.49-13.87-1.89-26.88-9.92-34.93-22.21-8.05-12.29-11.27-29.14-11.89-43.32-.62-14.33,1.49-26.31-7.06-44.42-8.55-18.12-27.5-42.37-26.76-56.39,.74-14.02,21.18-17.64,37.78-24.57,16.6-6.93,29.23-17.01,38.77-9.92,9.41,7.09,15.73,31.51,22.54,45.52Z"/>
          <path class="cls-3" d="M508.37,392.3c.31,2.85,.95,5.56,2.6,7.97s3.47,4.16,5.85,5.72c3.81,2.5,8.45,3.48,12.9,4.11,9.73,1.38,19.4,1.17,29.04-.85,4.83-1.01,9.49-2.73,14.38-3.44l-1.99,.27c3.85-.5,7.71-.27,11.55,.23l-1.99-.27c6.49,.9,13.17,2,19.26,4.52l-1.79-.76c1.65,.7,3.26,1.5,4.76,2.49,.24,.16,1.45,1.05,.37,.23s.06,.12,.27,.34c1.1,1.14-.52-.93-.19-.29,.22,.42,.46,.81,.66,1.25l-.76-1.79c1.22,3.07,1.61,6.55,2.28,9.76s1.25,6.29,2.02,9.4c.84,3.38,2.03,6.81,3.83,9.8s4.39,5.73,7.16,8.02c5.19,4.29,10.61,8.58,16.5,11.88,6.56,3.68,13.49,5.66,20.93,6.42,7.42,.76,14.9,.02,22.29-.73,2.04-.21,3.81-.7,5.3-2.2,1.3-1.3,2.28-3.44,2.2-5.3-.17-3.72-3.32-7.92-7.5-7.5-7.93,.8-15.93,1.56-23.88,.54l1.99,.27c-3.74-.51-7.38-1.44-10.87-2.9l1.79,.76c-5.33-2.29-10.37-5.56-14.86-9.22,.23,.18,1.26,.98,.47,.36-.35-.27-.69-.54-1.04-.81-.57-.45-1.15-.9-1.72-1.36-1.08-.86-2.15-1.75-3.15-2.69-.53-.5-1.04-1.01-1.53-1.54-.2-.22-.45-.68-.71-.82,.67,.9,.84,1.12,.51,.66-.09-.12-.17-.23-.25-.35-.84-1.21-1.52-2.51-2.1-3.86l.76,1.79c-2.2-5.38-3-11.34-4.18-17-.68-3.26-1.19-6.53-2.7-9.53-1.67-3.31-4.75-5.74-7.93-7.5-5.41-3-11.42-4.59-17.46-5.7-6.48-1.18-13.21-2.43-19.81-1.66-7.48,.87-14.54,3.62-22,4.65l1.99-.27c-6.45,.85-12.97,.86-19.43,.02l1.99,.27c-3.09-.42-6.2-.94-9.11-2.12l1.79,.76c-.66-.29-1.31-.6-1.93-.96-.02-.01-1.02-.64-1-.65,.05-.05,1.58,1.33,.48,.33-.24-.22-.47-.44-.68-.67s-.96-1.16-.15-.12,.1,.08-.05-.18c-.19-.33-.36-.66-.51-1.01l.76,1.79c-.29-.71-.49-1.41-.61-2.16l.27,1.99-.04-.38c-.22-2.05-.69-3.8-2.2-5.3-1.3-1.3-3.44-2.28-5.3-2.2s-3.95,.72-5.3,2.2c-1.26,1.38-2.41,3.36-2.2,5.3h0Z"/>
        </g>
        <g>
          <path class="cls-4" d="M388.54,472.56c12.7,8.8,26.5,15.4,33.2,26.2,6.7,10.9,6.4,26.1,4.7,41.5-1.7,15.3-4.7,30.8-14.2,39.4-9.5,8.7-25.4,10.4-40.3,14.2-15,3.8-28.9,9.7-40.1,6.2-11.1-3.4-19.4-16.1-31.8-27.1s-28.8-20.3-31.1-32.1c-2.3-11.7,9.5-25.9,17.9-40.5,8.4-14.6,13.4-29.7,23.8-39.5,10.3-9.9,26.1-14.5,39.8-11.3,13.8,3.2,25.4,14.2,38.1,23Z"/>
          <path class="cls-3" d="M322.08,487.81c12.22-10.56,13.72-27.4,17.07-42.13,.92-4.05,2.03-8.07,3.63-11.91l-.76,1.79c.79-1.86,1.69-3.68,2.75-5.4,.53-.86,1.12-1.67,1.7-2.5,.44-.64-1.31,1.61-.48,.63,.14-.16,.27-.33,.41-.5,.36-.43,.74-.85,1.12-1.25,.8-.84,1.65-1.64,2.54-2.39,.17-.14,1.22-.97,.14-.14s-.08,.07,.16-.11c.47-.34,.94-.66,1.43-.98,2.11-1.37,4.36-2.52,6.67-3.51l-1.79,.76c5.54-2.33,11.39-3.78,17.23-5.11,3.55-.81,7.1-1.6,10.65-2.4s7.25-1.81,10.92-2.39l-1.99,.27c1.06-.14,2.08-.19,3.14-.09l-1.99-.27c.72,.11,1.39,.29,2.06,.57l-1.79-.76c.42,.2,.83,.42,1.22,.67,1.34,.87-.95-.9-.08-.07,.69,.66,1.37,1.32,2.02,2.01,1.24,1.32,2.48,2.65,3.74,3.95,2.92,3,6,5.75,9.37,8.23,7.27,5.36,16.24,7.52,25.04,5.1,5.08-1.4,9.77-4.01,14.6-6.06l-1.79,.76c8.34-3.5,17.1-5.89,26.06-7.12l-1.99,.27c4.86-.65,9.75-.96,14.65-.93,3.92,.03,7.68-3.47,7.5-7.5s-3.29-7.47-7.5-7.5c-9.14-.06-18.37,1.03-27.25,3.2-4.16,1.02-8.26,2.3-12.27,3.83-4.49,1.72-8.78,3.84-13.2,5.71l1.79-.76c-2.46,1.02-4.96,1.87-7.6,2.26l1.99-.27c-1.61,.2-3.2,.22-4.82,.04l1.99,.27c-1.83-.25-3.59-.74-5.3-1.44l1.79,.76c-2.2-.94-4.21-2.18-6.15-3.57-.96-.69,.56,.44,.6,.47-.26-.18-.51-.4-.76-.6-.45-.37-.9-.75-1.34-1.13-.99-.86-1.95-1.76-2.88-2.67-1.73-1.69-3.39-3.44-5.04-5.2-2.02-2.16-4.16-4.37-6.86-5.66-7-3.36-14.8-.45-21.9,1.15-5.41,1.22-10.85,2.37-16.23,3.73-10.3,2.62-21.05,6.67-28.23,14.89-6.13,7.02-9.33,15.74-11.38,24.71-2.06,9.04-3.16,18.42-6.77,27.03l.76-1.79c-.94,2.2-2.04,4.34-3.39,6.32-.22,.33-1.42,1.93-.51,.75s-.35,.39-.61,.69c-.85,.96-1.76,1.84-2.73,2.68-2.98,2.57-2.84,8,0,10.61,3.17,2.91,7.43,2.75,10.61,0h0Z"/>
        </g>
      </g>
    </g>
  </g>
</svg>