<?xml version="1.0" encoding="UTF-8"?>
<svg id="Layer_2" data-name="Layer 2" xmlns="http://www.w3.org/2000/svg" viewBox="0 0 90 160">
  <defs>
    <style>
      .cls-1 {
        fill: #e6e7e8;
      }
    </style>
  </defs>
  <g id="Layer_1-2" data-name="Layer 1">
    <path class="cls-1" d="M87,.75c1.24,0,2.25,1.01,2.25,2.25V100.46c0,.73-.35,1.41-.94,1.83l-.09,.06-.07,.09-2.42,3.12c-.93,.71-1.48,1.81-1.48,2.98v27.91c0,1.17,.55,2.28,1.48,2.98l2.42,3.12,.07,.09,.09,.06c.59,.42,.94,1.11,.94,1.83v12.46c0,1.24-1.01,2.25-2.25,2.25H3c-1.24,0-2.25-1.01-2.25-2.25V15.31L15.31,.75H87m0-.75H15L0,15V157c0,1.66,1.34,3,3,3H87c1.66,0,3-1.34,3-3v-12.46c0-.97-.47-1.88-1.26-2.44l-2.49-3.21c-.79-.56-1.26-1.47-1.26-2.44v-27.91c0-.97,.47-1.88,1.26-2.44l2.49-3.21c.79-.56,1.26-1.47,1.26-2.44V3c0-1.66-1.34-3-3-3h0Z"/>
  </g>
</svg>