<?xml version="1.0" encoding="UTF-8"?>
<svg id="Layer_2" data-name="Layer 2" xmlns="http://www.w3.org/2000/svg" viewBox="0 0 160 45">
  <defs>
    <style>
      .cls-1 {
        fill: #e6e7e8;
      }
    </style>
  </defs>
  <g id="Layer_1-2" data-name="Layer 1">
    <path class="cls-1" d="M157,.75c1.24,0,2.25,1.01,2.25,2.25V42c0,1.24-1.01,2.25-2.25,2.25H15.31L.75,29.69V3C.75,1.76,1.76,.75,3,.75H100.46c.73,0,1.41,.35,1.83,.94l.06,.09,.09,.07,3.12,2.42c.71,.93,1.81,1.48,2.98,1.48h27.91c1.17,0,2.28-.55,2.98-1.48l3.12-2.42,.09-.07,.06-.09c.42-.59,1.11-.94,1.83-.94h12.46m0-.75h-12.46c-.97,0-1.88,.47-2.44,1.26l-3.21,2.49c-.56,.79-1.47,1.26-2.44,1.26h-27.91c-.97,0-1.88-.47-2.44-1.26l-3.21-2.49c-.56-.79-1.47-1.26-2.44-1.26H3C1.34,0,0,1.34,0,3V30l15,15H157c1.66,0,3-1.34,3-3V3c0-1.66-1.34-3-3-3h0Z"/>
  </g>
</svg>