<?xml version="1.0" encoding="UTF-8"?>
<svg id="Layer_2" data-name="Layer 2" xmlns="http://www.w3.org/2000/svg" viewBox="0 0 160 90">
  <defs>
    <style>
      .cls-1 {
        fill: #e6e7e8;
      }
    </style>
  </defs>
  <g id="Layer_1-2" data-name="Layer 1">
    <path class="cls-1" d="M157,1c1.1,0,2,.9,2,2V87c0,1.1-.9,2-2,2H15.41L1,74.59V3C1,1.9,1.9,1,3,1H100.46c.64,0,1.25,.31,1.63,.84l.09,.12,.12,.09,3.1,2.4c.75,.97,1.92,1.55,3.16,1.55h27.91c1.24,0,2.41-.58,3.16-1.55l3.1-2.4,.12-.09,.09-.12c.37-.52,.98-.84,1.63-.84h12.46m0-1h-12.46c-.97,0-1.88,.47-2.44,1.26l-3.21,2.49c-.56,.79-1.47,1.26-2.44,1.26h-27.91c-.97,0-1.88-.47-2.44-1.26l-3.21-2.49c-.56-.79-1.47-1.26-2.44-1.26H3C1.34,0,0,1.34,0,3V75l15,15H157c1.66,0,3-1.34,3-3V3c0-1.66-1.34-3-3-3h0Z"/>
  </g>
</svg>